<svg xmlns="http://www.w3.org/2000/svg" width="110" height="102" viewBox="0 0 110 102">
    <g fill="#FFF" fill-rule="nonzero">
        <path d="M79.03 77.218h-7.465v-7c0-.97-.784-1.755-1.751-1.755H56.802V63.65h7.568c.967 0 1.751-.786 1.751-1.755V41.218c0-.97-.784-1.755-1.751-1.755h-7.568v-5.247h4.856c.967 0 1.751-.785 1.751-1.754s-.784-1.755-1.751-1.755H40.29v-3.104h9.079c.967 0 1.751-.786 1.751-1.755V1.754C51.12.786 50.336 0 49.37 0H27.651c-.967 0-1.752.786-1.752 1.754V25.85c0 .969.785 1.754 1.752 1.754h9.136v3.105H19.69c-.967 0-1.751.786-1.751 1.755v7H10.37c-.967 0-1.752.786-1.752 1.755v9.49a1.753 1.753 0 0 0 3.503 0v-7.736h15.136v17.17h-1.025a6.675 6.675 0 0 0-2.046-3.666 6.662 6.662 0 0 0 2.165-4.919c0-3.68-2.988-6.673-6.662-6.673-3.673 0-6.661 2.994-6.661 6.673a6.66 6.66 0 0 0 2.165 4.919 6.672 6.672 0 0 0-2.046 3.666h-1.025v-3.585a1.753 1.753 0 0 0-3.503 0v5.339c0 .969.784 1.755 1.751 1.755h7.568v4.813h-6.867c-.968 0-1.752.785-1.752 1.754v7.001H1.752C.784 77.22 0 78.005 0 78.974v20.678c0 .968.784 1.754 1.752 1.754H20.39c.968 0 1.752-.786 1.752-1.754V78.974c0-.97-.784-1.755-1.752-1.755h-7.568v-5.247h6.867c.968 0 1.752-.785 1.752-1.754V63.65h7.568c.967 0 1.751-.786 1.751-1.755V41.218c0-.968-.784-1.754-1.751-1.754H21.44v-5.247H53.3v5.247h-7.568c-.968 0-1.752.786-1.752 1.754v20.678c0 .97.784 1.755 1.752 1.755H53.3v4.813H40.288c-.968 0-1.752.785-1.752 1.754v7.001h-7.465c-.967 0-1.751.786-1.751 1.755v20.678c0 .969.784 1.754 1.751 1.754H49.71c.967 0 1.752-.785 1.752-1.754V78.974c0-.969-.785-1.755-1.752-1.755h-7.671v-5.246h26.023v5.246h-7.67c-.968 0-1.752.786-1.752 1.755v20.678c0 .968.784 1.754 1.751 1.754H79.03c.967 0 1.751-.786 1.751-1.754v-20.68c0-.968-.784-1.754-1.751-1.754zM8.17 97.896a3.163 3.163 0 0 1 2.9-1.911c1.297 0 2.414.788 2.899 1.911H8.171zm2.9-5.42a3.165 3.165 0 0 1 0-6.328 3.165 3.165 0 0 1 0 6.328zm7.568-11.749v17.17h-1.026a6.675 6.675 0 0 0-2.045-3.667 6.662 6.662 0 0 0 2.165-4.918c0-3.68-2.989-6.673-6.662-6.673s-6.662 2.994-6.662 6.673a6.66 6.66 0 0 0 2.165 4.918 6.672 6.672 0 0 0-2.045 3.666H3.503V80.727H18.64zm-1.85-20.586a3.163 3.163 0 0 1 2.9-1.911c1.298 0 2.414.788 2.9 1.911h-5.8zm2.9-5.42a3.165 3.165 0 0 1 0-6.329 3.165 3.165 0 0 1 0 6.329zm11.44-30.627h-1.727V3.51h18.215v20.585h-1.726a7.487 7.487 0 0 0-2.581-4.561 7.476 7.476 0 0 0 2.673-5.731c0-4.128-3.353-7.486-7.473-7.486-4.12 0-7.473 3.358-7.473 7.486a7.476 7.476 0 0 0 2.673 5.73 7.488 7.488 0 0 0-2.581 4.562zm7.381-14.27a3.978 3.978 0 0 1 0 7.954 3.978 3.978 0 0 1 0-7.953zm-3.794 14.27a3.978 3.978 0 0 1 3.794-2.807 3.977 3.977 0 0 1 3.794 2.807h-7.588zm2.775 73.802a3.163 3.163 0 0 1 2.9-1.911c1.297 0 2.414.788 2.899 1.911H37.49zm2.9-5.42a3.165 3.165 0 0 1 0-6.328 3.165 3.165 0 0 1 0 6.328zm7.567-11.749v17.17h-1.025a6.675 6.675 0 0 0-2.046-3.667 6.662 6.662 0 0 0 2.165-4.918c0-3.68-2.988-6.673-6.661-6.673-3.673 0-6.662 2.994-6.662 6.673a6.66 6.66 0 0 0 2.165 4.918 6.672 6.672 0 0 0-2.045 3.666h-1.026V80.727h15.135zm.55-20.586h-1.025V42.972h15.135v17.17h-1.026a6.675 6.675 0 0 0-2.045-3.667 6.662 6.662 0 0 0 2.165-4.918c0-3.68-2.989-6.673-6.662-6.673s-6.661 2.994-6.661 6.673c0 1.945.835 3.698 2.165 4.918a6.674 6.674 0 0 0-2.046 3.666zm6.543-11.748a3.165 3.165 0 0 1 0 6.328 3.165 3.165 0 0 1 0-6.328zm-2.9 11.748a3.163 3.163 0 0 1 2.9-1.911c1.297 0 2.414.788 2.899 1.911H52.15zm14.66 37.755a3.162 3.162 0 0 1 2.9-1.911c1.297 0 2.414.788 2.9 1.911h-5.8zm2.9-5.42a3.165 3.165 0 0 1 0-6.328 3.165 3.165 0 0 1 0 6.328zm7.568 5.42h-1.026a6.675 6.675 0 0 0-2.046-3.666 6.662 6.662 0 0 0 2.165-4.918c0-3.68-2.988-6.673-6.661-6.673-3.673 0-6.662 2.994-6.662 6.673a6.66 6.66 0 0 0 2.165 4.918 6.672 6.672 0 0 0-2.045 3.666h-1.026V80.727H77.28v17.17z
        M108.252 77.219H100.7v-7.001c0-.97-.782-1.755-1.748-1.755H92.1V63.65h7.552c.965 0 1.748-.786 1.748-1.755V41.218c0-.97-.783-1.755-1.748-1.755H92.1v-7.001c0-.969-.783-1.754-1.748-1.754H76.206v-3.105h9.088c.966 0 1.748-.786 1.748-1.755V13.047c0-.97-.782-1.755-1.748-1.755-.965 0-1.747.786-1.747 1.755v11.047h-1.723a7.49 7.49 0 0 0-2.576-4.561 7.483 7.483 0 0 0 2.667-5.731c0-4.128-3.345-7.486-7.457-7.486s-7.457 3.358-7.457 7.486a7.483 7.483 0 0 0 2.667 5.731 7.491 7.491 0 0 0-2.575 4.561H65.37V3.51h18.176v3.69c0 .968.783 1.754 1.748 1.754.966 0 1.748-.786 1.748-1.754V1.755C87.042.785 86.26 0 85.294 0H63.623c-.966 0-1.748.786-1.748 1.755v24.094c0 .969.782 1.754 1.748 1.754h9.088v3.105h-5.226c-.966 0-1.748.786-1.748 1.755 0 .969.782 1.754 1.748 1.754h21.12v5.247h-7.552c-.966 0-1.748.785-1.748 1.754v20.678c0 .97.782 1.755 1.748 1.755h7.551v6.567c0 .97.783 1.755 1.748 1.755h6.853v5.246h-7.552c-.965 0-1.748.786-1.748 1.755v20.678c0 .969.783 1.754 1.748 1.754h18.599c.966 0 1.748-.785 1.748-1.754V78.974c0-.97-.783-1.755-1.748-1.755zM74.46 9.825c2.184 0 3.961 1.784 3.961 3.977 0 2.192-1.777 3.976-3.961 3.976-2.185 0-3.962-1.784-3.962-3.976 0-2.193 1.777-3.977 3.962-3.977zm-3.787 14.27a3.97 3.97 0 0 1 3.787-2.808 3.97 3.97 0 0 1 3.786 2.807h-7.573zm13.152 36.047H82.8v-17.17h15.104v17.17H96.88a6.679 6.679 0 0 0-2.041-3.666 6.669 6.669 0 0 0 2.16-4.919c0-3.68-2.982-6.673-6.647-6.673-3.666 0-6.647 2.994-6.647 6.673 0 1.945.833 3.698 2.16 4.919a6.68 6.68 0 0 0-2.041 3.666zm6.528-11.75a3.162 3.162 0 0 1 3.152 3.165 3.162 3.162 0 0 1-3.152 3.164 3.162 3.162 0 0 1-3.152-3.164 3.162 3.162 0 0 1 3.152-3.164zm-2.893 11.75a3.155 3.155 0 0 1 2.893-1.912c1.295 0 2.409.788 2.893 1.911H87.46zm8.6 37.755a3.155 3.155 0 0 1 2.893-1.912c1.295 0 2.41.789 2.894 1.912h-5.787zm2.893-5.42a3.162 3.162 0 0 1-3.151-3.165 3.162 3.162 0 0 1 3.151-3.164 3.162 3.162 0 0 1 3.152 3.164 3.162 3.162 0 0 1-3.152 3.164zm6.529 5.42a6.679 6.679 0 0 0-2.041-3.666 6.669 6.669 0 0 0 2.16-4.919c0-3.679-2.982-6.673-6.647-6.673-3.666 0-6.648 2.994-6.648 6.673 0 1.945.834 3.698 2.16 4.919a6.678 6.678 0 0 0-2.04 3.666H91.4v-17.17h15.103v17.17h-1.023z"/>
    </g>
</svg>
