<svg xmlns="http://www.w3.org/2000/svg" width="305" height="330" viewBox="0 0 305 330">
    <g fill="none" fill-rule="evenodd">
        <g fill="#0096C7" fill-rule="nonzero">
            <path d="M152.5 120c-17.92 0-32.5 14.598-32.5 32.54 0 12.911 4.685 18.905 9.216 24.701 2.901 3.713 5.642 7.22 7.171 12.577.848 2.971 1.487 8.76 1.786 11.852h-1.987a1.913 1.913 0 0 0-1.911 1.915v18.375c0 4.433 3.602 8.04 8.029 8.04h20.392c4.428 0 8.03-3.607 8.03-8.04v-18.375a1.913 1.913 0 0 0-1.912-1.915h-1.987c.298-3.092.937-8.879 1.786-11.852a26.39 26.39 0 0 1 1.747-4.523 1.915 1.915 0 0 0-.863-2.565 1.91 1.91 0 0 0-2.562.865 30.206 30.206 0 0 0-1.999 5.171c-.975 3.417-1.66 9.806-1.951 12.904h-20.97c-.29-3.098-.976-9.487-1.951-12.904-1.734-6.076-4.836-10.046-7.837-13.884-4.321-5.529-8.403-10.75-8.403-22.341 0-15.832 12.864-28.713 28.676-28.713 15.812 0 28.676 12.88 28.676 28.713 0 11.59-4.081 16.812-8.402 22.34-.469.6-1.115 1.208-1.21 2a1.93 1.93 0 0 0 .7 1.717c.51.412 1.209.533 1.828.318.775-.27 1.213-1.06 1.693-1.675 4.53-5.796 9.215-11.79 9.215-24.7C185 134.597 170.42 120 152.5 120zm14.402 101.96a4.213 4.213 0 0 1-4.206 4.212h-20.392a4.213 4.213 0 0 1-4.206-4.212v-.127h28.804v.127zm0-3.955h-28.804v-4.34h28.804v4.34zm0-12.506v4.338h-28.804V205.5h28.804z
            M160.601 155.757c1.049 0 1.899-.863 1.899-1.928v-2.058c0-4.466-3.577-8.1-7.975-8.1h-.126v-4.242c0-1.065-.85-1.929-1.899-1.929s-1.899.864-1.899 1.929v4.287c-4.54.454-8.101 4.354-8.101 9.084 0 5.034 4.032 9.129 8.987 9.129h2.025c2.862 0 5.19 2.364 5.19 5.27 0 2.908-2.328 5.272-5.19 5.272h-3.037c-2.304 0-4.177-1.903-4.177-4.242 0-1.066-.85-1.93-1.9-1.93-1.048 0-1.898.864-1.898 1.93 0 4.466 3.577 8.1 7.975 8.1h.126v4.242c0 1.065.85 1.929 1.899 1.929s1.899-.864 1.899-1.929v-4.287c4.54-.454 8.101-4.354 8.101-9.084 0-5.034-4.032-9.129-8.987-9.129h-2.025c-2.862 0-5.19-2.364-5.19-5.27 0-2.908 2.328-5.272 5.19-5.272h3.037c2.304 0 4.177 1.903 4.177 4.242v2.058c0 1.065.85 1.928 1.9 1.928zM152.5 100c-1.38 0-2.5.893-2.5 1.995v8.51c0 1.102 1.12 1.995 2.5 1.995s2.5-.893 2.5-1.995v-8.51c0-1.102-1.12-1.995-2.5-1.995zM137.346 114.596l-3.372-8.296a2.052 2.052 0 0 0-2.698-1.14c-1.054.445-1.555 1.677-1.118 2.75l3.372 8.297c.46 1.13 1.81 1.625 2.873 1.055.932-.498 1.346-1.676.943-2.666zM124.43 121.597l-6.022-6.013a1.998 1.998 0 0 0-2.823 0 1.99 1.99 0 0 0 0 2.819l6.022 6.013c.39.39.901.584 1.412.584 1.746 0 2.641-2.175 1.411-3.403zM116.203 136.03l-8.294-3.372c-1.073-.437-2.304.064-2.748 1.118a2.052 2.052 0 0 0 1.138 2.698l8.294 3.372c1.132.46 2.452-.153 2.815-1.298.319-1.006-.216-2.116-1.205-2.518zM110.505 150h-8.51c-1.102 0-1.995 1.12-1.995 2.5s.893 2.5 1.995 2.5h8.51c1.102 0 1.995-1.12 1.995-2.5s-.893-2.5-1.995-2.5zM117.34 168.775c-.445-1.053-1.676-1.554-2.75-1.117l-8.294 3.372c-.99.403-1.521 1.512-1.205 2.518.36 1.146 1.686 1.758 2.816 1.298l8.294-3.372a2.052 2.052 0 0 0 1.138-2.699zM201.203 171.03l-8.293-3.372c-1.074-.437-2.305.063-2.75 1.117a2.052 2.052 0 0 0 1.14 2.699l8.293 3.372c1.132.46 2.452-.153 2.815-1.298.318-1.005-.216-2.116-1.205-2.518zM203.005 150h-8.51c-1.102 0-1.995 1.12-1.995 2.5s.893 2.5 1.995 2.5h8.51c1.102 0 1.995-1.12 1.995-2.5s-.893-2.5-1.995-2.5zM202.34 133.775c-.445-1.053-1.676-1.554-2.749-1.117l-8.292 3.372a2.052 2.052 0 0 0-1.138 2.699c.438 1.04 1.688 1.549 2.748 1.117l8.292-3.372a2.052 2.052 0 0 0 1.138-2.699zM189.416 115.584a1.994 1.994 0 0 0-2.82 0l-6.018 6.02a2.014 2.014 0 0 0-.107 2.706c.746.871 2.116.926 2.927.115l6.018-6.02a1.996 1.996 0 0 0 0-2.82zM173.725 105.16a2.05 2.05 0 0 0-2.697 1.139l-3.37 8.292c-.437 1.073.063 2.304 1.117 2.748.258.11.526.161.789.161.81 0 1.579-.489 1.908-1.3l3.37-8.291c.436-1.073-.064-2.304-1.117-2.748z"/>
        </g>
    </g>
</svg>
