<svg xmlns="http://www.w3.org/2000/svg" width="314" height="330" viewBox="0 0 314 330">
    <g fill="none" fill-rule="evenodd">
        <g fill="#0096C7" fill-rule="nonzero">
            <path d="M186.818 143.166a2.55 2.55 0 0 0-3.662 0l-34.422 35.22-18.89-19.321a2.55 2.55 0 0 0-3.662 0 2.695 2.695 0 0 0 0 3.746L146.9 184.01a2.55 2.55 0 0 0 3.662 0l36.255-37.096a2.695 2.695 0 0 0 0-3.747z
            M211.079 116.364l-53.81-16.25a2.68 2.68 0 0 0-1.544 0l-53.81 16.25a2.705 2.705 0 0 0-1.915 2.594v59.584c0 23.952 36.278 45.256 55.704 51.339.258.081.527.119.796.119s.538-.038.796-.12C176.722 223.793 213 202.495 213 178.543v-59.584c0-1.197-.78-2.248-1.921-2.594zm-3.46 62.178c0 19.017-29.934 39.016-51.119 45.911-21.185-6.895-51.12-26.894-51.12-45.911v-57.569l51.12-15.437 51.12 15.437v57.569z"/>
        </g>
    </g>
</svg>
