<svg xmlns="http://www.w3.org/2000/svg" width="317" height="330" viewBox="0 0 317 330">
    <g fill="none" fill-rule="evenodd">
        <g fill="#0096C7" fill-rule="nonzero">
            <path d="M214.833 225.618h-3.61V110.955c0-1.21-.97-2.19-2.167-2.19H168.61c-1.196 0-2.166.98-2.166 2.19v9.494h-4.334v-9.494c0-1.21-.97-2.19-2.166-2.19h-9.39v-6.574c0-1.21-.97-2.191-2.166-2.191s-2.167.98-2.167 2.191v6.573h-9.388c-1.197 0-2.167.98-2.167 2.191v9.494h-6.5c-1.197 0-2.167.98-2.167 2.191V140.9h-18.055c-1.197 0-2.167.98-2.167 2.19v82.529h-3.611c-1.197 0-2.167.98-2.167 2.19 0 1.211.97 2.192 2.167 2.192h112.666c1.197 0 2.167-.98 2.167-2.191 0-1.21-.97-2.19-2.167-2.19zM139 113.146h18.778v7.303H139v-7.303zm-7.222 112.472h-1.445v-3.652c0-1.21-.97-2.19-2.166-2.19-1.197 0-2.167.98-2.167 2.19v3.652h-1.444v-7.303h7.222v7.303zm14.444-56.236V225.618h-10.111v-9.494c0-1.21-.97-2.191-2.167-2.191H122.39c-1.197 0-2.167.98-2.167 2.19v9.495h-10.11v-80.337h36.11v24.1zm2.167-28.483h-18.056v-16.067h36.111v42.359h-15.888v-7.303h6.5c1.196 0 2.166-.981 2.166-2.191s-.97-2.191-2.166-2.191h-6.5v-7.304h6.5c1.196 0 2.166-.98 2.166-2.19 0-1.211-.97-2.192-2.166-2.192h-6.5v-.73c0-1.21-.97-2.191-2.167-2.191zm38.278 84.72h-36.111V171.572h36.11v54.045zm20.222 0H191V166.46c0-1.21-.97-2.19-2.166-2.19s-2.166.98-2.166 2.19v.73h-4.334v-.73c0-1.21-.97-2.19-2.166-2.19-1.197 0-2.167.98-2.167 2.19v.73h-7.222v-54.044h36.111v112.472z
            M161.043 222.353c1.405 0 2.544-.994 2.544-2.22V178.69c0-1.227-1.139-2.22-2.544-2.22-1.404 0-2.543.993-2.543 2.22v41.442c0 1.226 1.139 2.22 2.543 2.22zM168.674 222.353c1.405 0 2.543-.994 2.543-2.22V178.69c0-1.227-1.139-2.22-2.543-2.22-1.405 0-2.544.993-2.544 2.22v41.442c0 1.226 1.14 2.22 2.544 2.22zM178.848 222.353c1.405 0 2.543-.994 2.543-2.22V178.69c0-1.227-1.139-2.22-2.543-2.22-1.405 0-2.544.993-2.544 2.22v41.442c0 1.226 1.14 2.22 2.544 2.22zM181.391 128.04c1.405 0 2.544-1.028 2.544-2.295v-3.059c0-1.267-1.14-2.294-2.544-2.294-1.404 0-2.543 1.027-2.543 2.294v3.06c0 1.266 1.138 2.293 2.543 2.293zM189.022 128.04c1.405 0 2.543-1.028 2.543-2.295v-3.059c0-1.267-1.139-2.294-2.543-2.294-1.405 0-2.544 1.027-2.544 2.294v3.06c0 1.266 1.139 2.293 2.544 2.293zM196.652 128.04c1.405 0 2.544-1.028 2.544-2.295v-3.059c0-1.267-1.14-2.294-2.544-2.294-1.404 0-2.543 1.027-2.543 2.294v3.06c0 1.266 1.138 2.293 2.543 2.293zM181.391 143.333c1.405 0 2.544-1.026 2.544-2.294v-3.059c0-1.267-1.14-2.294-2.544-2.294-1.404 0-2.543 1.027-2.543 2.294v3.06c0 1.267 1.138 2.293 2.543 2.293zM189.022 143.333c1.405 0 2.543-1.026 2.543-2.294v-3.059c0-1.267-1.139-2.294-2.543-2.294-1.405 0-2.544 1.027-2.544 2.294v3.06c0 1.267 1.139 2.293 2.544 2.293zM196.652 143.333c1.405 0 2.544-1.026 2.544-2.294v-3.059c0-1.267-1.14-2.294-2.544-2.294-1.404 0-2.543 1.027-2.543 2.294v3.06c0 1.267 1.138 2.293 2.543 2.293zM181.391 158.627c1.405 0 2.544-1.026 2.544-2.294v-3.059c0-1.267-1.14-2.294-2.544-2.294-1.404 0-2.543 1.027-2.543 2.294v3.06c0 1.266 1.138 2.293 2.543 2.293zM189.022 158.627c1.405 0 2.543-1.026 2.543-2.294v-3.059c0-1.267-1.139-2.294-2.543-2.294-1.405 0-2.544 1.027-2.544 2.294v3.06c0 1.266 1.139 2.293 2.544 2.293zM196.652 158.627c1.405 0 2.544-1.026 2.544-2.294v-3.059c0-1.267-1.14-2.294-2.544-2.294-1.404 0-2.543 1.027-2.543 2.294v3.06c0 1.266 1.138 2.293 2.543 2.293zM120.348 163.725c1.405 0 2.543-1.026 2.543-2.294v-3.059c0-1.267-1.139-2.294-2.543-2.294-1.405 0-2.544 1.027-2.544 2.294v3.06c0 1.266 1.14 2.293 2.544 2.293zM127.978 163.725c1.405 0 2.544-1.026 2.544-2.294v-3.059c0-1.267-1.14-2.294-2.544-2.294-1.404 0-2.543 1.027-2.543 2.294v3.06c0 1.266 1.138 2.293 2.543 2.293zM138.152 163.725c1.405 0 2.544-1.026 2.544-2.294v-3.059c0-1.267-1.14-2.294-2.544-2.294-1.404 0-2.543 1.027-2.543 2.294v3.06c0 1.266 1.138 2.293 2.543 2.293zM120.348 179.02c1.405 0 2.543-1.027 2.543-2.294v-3.06c0-1.267-1.139-2.293-2.543-2.293-1.405 0-2.544 1.026-2.544 2.294v3.059c0 1.267 1.14 2.294 2.544 2.294zM127.978 179.02c1.405 0 2.544-1.027 2.544-2.294v-3.06c0-1.267-1.14-2.293-2.544-2.293-1.404 0-2.543 1.026-2.543 2.294v3.059c0 1.267 1.138 2.294 2.543 2.294zM138.152 179.02c1.405 0 2.544-1.027 2.544-2.294v-3.06c0-1.267-1.14-2.293-2.544-2.293-1.404 0-2.543 1.026-2.543 2.294v3.059c0 1.267 1.138 2.294 2.543 2.294zM120.348 191.765c1.405 0 2.543-1.027 2.543-2.294v-3.06c0-1.267-1.139-2.293-2.543-2.293-1.405 0-2.544 1.026-2.544 2.294v3.059c0 1.267 1.14 2.294 2.544 2.294zM127.978 191.765c1.405 0 2.544-1.027 2.544-2.294v-3.06c0-1.267-1.14-2.293-2.544-2.293-1.404 0-2.543 1.026-2.543 2.294v3.059c0 1.267 1.138 2.294 2.543 2.294zM138.152 191.765c1.405 0 2.544-1.027 2.544-2.294v-3.06c0-1.267-1.14-2.293-2.544-2.293-1.404 0-2.543 1.026-2.543 2.294v3.059c0 1.267 1.138 2.294 2.543 2.294zM120.348 207.059c1.405 0 2.543-1.027 2.543-2.294v-3.06c0-1.267-1.139-2.293-2.543-2.293-1.405 0-2.544 1.026-2.544 2.294v3.059c0 1.267 1.14 2.294 2.544 2.294zM127.978 207.059c1.405 0 2.544-1.027 2.544-2.294v-3.06c0-1.267-1.14-2.293-2.544-2.293-1.404 0-2.543 1.026-2.543 2.294v3.059c0 1.267 1.138 2.294 2.543 2.294zM138.152 207.059c1.405 0 2.544-1.027 2.544-2.294v-3.06c0-1.267-1.14-2.293-2.544-2.293-1.404 0-2.543 1.026-2.543 2.294v3.059c0 1.267 1.138 2.294 2.543 2.294zM196.652 171.373c1.405 0 2.544-1.027 2.544-2.295v-3.058c0-1.268-1.14-2.295-2.544-2.295-1.404 0-2.543 1.027-2.543 2.295v3.058c0 1.268 1.138 2.295 2.543 2.295zM196.652 186.667c1.405 0 2.544-1.027 2.544-2.294v-3.06c0-1.267-1.14-2.293-2.544-2.293-1.404 0-2.543 1.026-2.543 2.294v3.059c0 1.267 1.138 2.294 2.543 2.294zM196.652 201.96c1.405 0 2.544-1.026 2.544-2.293v-3.06c0-1.267-1.14-2.293-2.544-2.293-1.404 0-2.543 1.026-2.543 2.294v3.059c0 1.267 1.138 2.294 2.543 2.294zM196.652 214.706c1.405 0 2.544-1.027 2.544-2.294v-3.06c0-1.266-1.14-2.293-2.544-2.293-1.404 0-2.543 1.027-2.543 2.294v3.059c0 1.267 1.138 2.294 2.543 2.294zM161.043 135.686c0-1.408-1.025-2.549-2.289-2.549h-18.313c-1.264 0-2.289 1.141-2.289 2.55 0 1.407 1.025 2.548 2.29 2.548h18.312c1.265 0 2.29-1.14 2.29-2.549z"/>
        </g>
    </g>
</svg>
