<svg xmlns="http://www.w3.org/2000/svg" width="330" height="314" viewBox="0 0 330 314">
    <g fill="none" fill-rule="evenodd">
        <g fill="#0096C7" fill-rule="nonzero">
            <path d="M188.048 153.146H176.998V142.07A4.04 4.04 0 0 0 172.99 138H157.037a4.04 4.04 0 0 0-4.035 4.044v11.075H141.98a4.04 4.04 0 0 0-4.062 4.016v15.988a4.04 4.04 0 0 0 4.035 4.044h11.05v11.047a4.04 4.04 0 0 0 4.008 4.072H172.935a4.04 4.04 0 0 0 4.036-4.045v-11.074h11.05a4.04 4.04 0 0 0 4.062-4.017V157.19a4.04 4.04 0 0 0-4.035-4.044zm-1.381 18.593H174.29a2.711 2.711 0 0 0-2.709 2.714v12.404H158.42v-12.404a2.711 2.711 0 0 0-2.709-2.714h-12.377v-13.165h12.377a2.711 2.711 0 0 0 2.709-2.714v-12.431h13.135v12.404a2.711 2.711 0 0 0 2.709 2.714h12.404v13.192z
            M211.543 117.685h-22.04v-9.542c.138-4.354-3.233-7.998-7.53-8.139a7.716 7.716 0 0 0-.656.007h-32.634c-4.293-.227-7.955 3.116-8.179 7.467a7.888 7.888 0 0 0-.006.665v9.488h-22.041c-8.506 0-18.457 4.907-18.457 18.705v58.96c0 13.797 9.95 18.704 18.457 18.704h93.086c8.506 0 18.457-4.907 18.457-18.705V136.39c0-13.798-9.924-18.705-18.457-18.705zm-65.695-9.542c0-.786 0-2.9 2.862-2.9h32.607c2.862 0 2.862 2.087 2.862 2.9v9.488h-38.331v-9.488zm78.802 87.152c0 11.982-9.148 13.283-13.107 13.283h-93.086c-3.932 0-13.107-1.3-13.107-13.283V136.39c0-11.982 9.148-13.283 13.107-13.283h93.086c3.932 0 13.107 1.301 13.107 13.283v58.905z"/>
        </g>
    </g>
</svg>
