<svg xmlns="http://www.w3.org/2000/svg" width="86" height="110" viewBox="0 0 86 110">
    <path fill="#FFF" fill-rule="nonzero" d="M80.356 0H5.581A5.589 5.589 0 0 0 0 5.583v98.834A5.589 5.589 0 0 0 5.581 110h74.775a5.589 5.589 0 0 0 5.582-5.583V5.583A5.589 5.589 0 0 0 80.356 0zm-62.36 64.852c1.806-3.663 2.723-9.427 2.723-17.13v-6.29c0-12.36 9.981-22.418 22.25-22.418 12.268 0 22.25 10.057 22.25 22.418v6.29c0 7.704.916 13.465 2.724 17.121.396.8.804 1.437 1.2 1.941-1.446.734-3.897 1.602-7.575 1.786-6.398-.05-8.006-3.37-8.153-6.357 5.116-3.396 8.496-9.208 8.496-15.796V39.69c0-2.715-1.46-4.84-4.11-5.983-8.505-3.667-29.55 2.94-33.217 6.405a1.783 1.783 0 0 0-.558 1.295v5.01c0 6.618 3.412 12.452 8.567 15.841-.273 5.172-4.58 6.3-8.239 6.311-3.143-.166-5.38-.848-6.76-1.433-.286-.12-.546-.242-.782-.36a11.19 11.19 0 0 0 1.183-1.924zm24.973-3.05c-8.481 0-15.38-6.902-15.38-15.386v-4.13c1.77-1.13 6.472-3.073 12.523-4.543 7.228-1.757 13.314-2.042 16.279-.763 1.373.592 1.958 1.402 1.958 2.71v6.727c0 8.483-6.9 15.385-15.38 15.385zm-7.025 2.207a18.831 18.831 0 0 0 7.025 1.356c2.502 0 4.89-.492 7.08-1.378.275 1.452.876 3.057 2.092 4.49 1.375 1.62 3.269 2.704 5.65 3.248-3.314 7.936-12.28 12.666-14.824 13.876-2.545-1.205-11.49-5.912-14.812-13.856 5.494-1.21 7.251-5.005 7.789-7.736zm6.343 25.194c.437.18.927.18 1.363 0 .15-.062 3.714-1.553 7.722-4.504 4.908-3.614 8.348-7.877 10.024-12.402 6.083.624 10.682 5.716 10.682 12.102v22.037h-6.734V94.485a1.782 1.782 0 1 0-3.563 0v11.951H24.156V94.485a1.782 1.782 0 1 0-3.562 0v11.951h-6.735V84.4c0-6.386 4.598-11.478 10.681-12.103 4.099 11.143 17.171 16.668 17.747 16.906zm38.07 17.233H75.64V84.4c0-5.756-2.903-10.697-7.335-13.437 3.403-1.13 4.946-2.663 5.045-2.764a1.783 1.783 0 0 0-.69-2.931c-.262-.15-3.88-2.495-3.88-17.546v-6.29c0-14.326-11.58-25.981-25.812-25.981-14.233 0-25.813 11.655-25.813 25.982v6.289c0 15.063-3.624 17.42-3.885 17.569a1.782 1.782 0 0 0-.65 2.963c.102.1 1.682 1.586 5.027 2.7-4.442 2.736-7.351 7.683-7.351 13.446v22.036H5.58a2.021 2.021 0 0 1-2.018-2.02V5.584c0-1.113.905-2.02 2.018-2.02h74.775c1.113 0 2.019.907 2.019 2.02v98.834c0 1.113-.906 2.02-2.019 2.02z"/>
</svg>
