<svg xmlns="http://www.w3.org/2000/svg" width="299" height="330" viewBox="0 0 299 330">
    <g fill="none" fill-rule="evenodd">
        <g fill="#0096C7" fill-rule="nonzero">
            <path d="M173.055 198.917l-50.91-.004c-1.404 0-2.545.631-2.545 1.411 0 .778 1.138 1.411 2.545 1.411l50.91.004c1.404 0 2.545-.631 2.545-1.41 0-.78-1.138-1.412-2.545-1.412zM167 207.391h-36c-1.658 0-3 .632-3 1.413s1.342 1.413 3 1.413h36c1.658 0 3-.632 3-1.413 0-.78-1.342-1.413-3-1.413zM147.6 131.087c-15.44 0-28 12.678-28 28.26 0 15.584 12.56 28.262 28 28.262s28-12.678 28-28.261c0-15.583-12.56-28.261-28-28.261zm-22.652 30.83h9.977c.282 6.999 1.714 13.958 4.2 18.87-7.677-3.103-13.22-10.28-14.177-18.87zm9.977-5.138h-9.977c.958-8.59 6.5-15.766 14.177-18.87-2.486 4.911-3.918 11.871-4.2 18.87zM147.6 182.47c-2.916 0-7.018-7.96-7.534-20.554h15.068c-.516 12.594-4.618 20.554-7.534 20.554zm-7.534-25.692c.516-12.594 4.618-20.554 7.534-20.554 2.916 0 7.018 7.96 7.534 20.554h-15.068zm16.01 24.008c2.485-4.912 3.917-11.871 4.2-18.87h9.976c-.958 8.59-6.5 15.767-14.177 18.87zm4.2-24.008c-.283-6.999-1.715-13.959-4.2-18.87 7.676 3.104 13.219 10.28 14.176 18.87h-9.977z
            M187.11 116.25h-5.444v-5.596c0-5.918-5.032-10.713-10.888-10.653-.837.008-1.57.123-2.433.34l-58.04 15.968c-5.73.309-10.305 4.999-10.305 10.775v92.083c0 5.974 4.883 10.833 10.889 10.833h76.222c6.005 0 10.889-4.858 10.889-10.833v-92.083c0-5.975-4.884-10.834-10.89-10.834zm-17.367-10.674c3.177-.807 6.479 1.753 6.479 5.078v5.596h-45.276l38.797-10.674zm22.812 113.59c0 2.987-2.443 5.417-5.444 5.417H110.89c-3.001 0-5.444-2.43-5.444-5.416v-92.083c0-2.986 2.443-5.417 5.444-5.417h76.222c3.001 0 5.444 2.43 5.444 5.417v92.083z"/>
        </g>
    </g>
</svg>
