<svg xmlns="http://www.w3.org/2000/svg" width="88" height="110" viewBox="0 0 88 110">
    <g fill="#FFF" fill-rule="nonzero">
        <path d="M66.33 83.81H13.987c-.975 0-1.766.781-1.766 1.746 0 .964.79 1.746 1.766 1.746h52.341c.976 0 1.766-.782 1.766-1.746 0-.965-.79-1.746-1.766-1.746zM17.835 55.479c3.619 7.445 11.482 12.616 20.578 12.616 9.097 0 16.961-5.172 20.579-12.62.042-.067.077-.14.104-.217a20.992 20.992 0 0 0 2.015-8.988c0-3.756-.992-7.294-2.737-10.383a1.124 1.124 0 0 0-.134-.234c-3.885-6.682-11.316-11.209-19.827-11.209-8.51 0-15.94 4.526-19.825 11.205a1.126 1.126 0 0 0-.139.241 21.041 21.041 0 0 0-2.735 10.38c0 3.2.72 6.243 2.014 8.984.027.08.063.155.107.225zm30.492 7.855c.929-2.527 1.668-4.95 2.22-7.304h5.484c-1.834 3.051-4.505 5.579-7.704 7.304zm8.872-9.574h-6.175c.457-2.466.705-4.873.734-7.26h6.991a18.786 18.786 0 0 1-1.55 7.26zm1.442-9.53h-6.92a41.668 41.668 0 0 0-.877-6.782h5.717a18.845 18.845 0 0 1 2.08 6.783zm-3.487-9.052h-4.85a57.42 57.42 0 0 0-1.94-5.955 20.218 20.218 0 0 1 6.79 5.955zm-15.56-8.43c2.014.11 3.95.505 5.767 1.142.01.104.031.208.074.31 1.008 2.419 1.825 4.73 2.452 6.978h-8.294v-8.43zm0 10.7h8.866a39.28 39.28 0 0 1 .932 6.783h-9.799v-6.783zm0 9.053h9.836c-.031 2.38-.296 4.782-.785 7.26h-9.051V46.5zm0 9.53h8.545c-.658 2.652-1.551 5.404-2.712 8.338-.035.09-.054.18-.065.27a20.878 20.878 0 0 1-5.769 1.154V56.03zm-18.8 0h5.484c.552 2.353 1.291 4.776 2.22 7.303-3.199-1.726-5.869-4.253-7.704-7.304zm16.438 9.762a20.89 20.89 0 0 1-5.769-1.154 1.098 1.098 0 0 0-.065-.27c-1.16-2.934-2.054-5.686-2.711-8.339h8.546v9.763zm0-12.033h-9.051c-.49-2.477-.754-4.88-.785-7.26h9.837v7.26zm0-9.53h-9.799c.109-2.243.415-4.488.933-6.782h8.867v6.783zm0-9.052h-8.294c.627-2.249 1.444-4.56 2.452-6.977.043-.102.063-.206.074-.31a20.905 20.905 0 0 1 5.769-1.144v8.43zm-8.772-5.954a57.411 57.411 0 0 0-1.938 5.954h-4.85a20.221 20.221 0 0 1 6.788-5.954zm-8.195 8.224h5.717a41.643 41.643 0 0 0-.878 6.783h-6.919a18.837 18.837 0 0 1 2.08-6.783zm4.802 9.053a42.5 42.5 0 0 0 .734 7.26h-6.175a18.795 18.795 0 0 1-1.55-7.26h6.991z
        M79.455 0c-.03 0-.06.001-.09.004-6.42.484-13.931.973-21.882 1.49C40.862 2.574 22.072 3.798 7.955 5.35 3.527 5.6 0 9.236 0 13.681v87.963C0 106.252 3.786 110 8.44 110h63.053c4.013 0 7.374-2.79 8.225-6.511 4.204-.14 7.584-3.56 7.584-7.756V7.769c0-4.284-3.52-7.769-7.847-7.769zm-3.079 101.645c0 2.666-2.19 4.835-4.882 4.835H8.439c-2.693 0-4.883-2.17-4.883-4.835V13.68c0-2.666 2.19-4.835 4.883-4.835h63.054c2.693 0 4.883 2.17 4.883 4.835v87.964zm8.555-5.912c0 2.83-2.202 5.157-4.999 5.398V13.68c0-4.607-3.786-8.355-8.439-8.355H35.517c7.41-.533 14.967-1.025 22.121-1.49 7.938-.516 15.437-1.004 21.86-1.489 3 .023 5.433 2.447 5.433 5.422v87.964z"/>
    </g>
</svg>
