<svg xmlns="http://www.w3.org/2000/svg" width="300" height="300" viewBox="0 0 300 300">
    <g fill="none" fill-rule="evenodd">
        <g fill="#0096C7" fill-rule="nonzero">
            <path d="M100.771 195.508l94.737-94.737 3.72 3.721-94.736 94.737zM115.79 131.579c8.707 0 15.789-7.082 15.789-15.79 0-8.707-7.082-15.789-15.79-15.789-8.707 0-15.789 7.082-15.789 15.79 0 8.707 7.082 15.789 15.79 15.789zm0-26.316c5.805 0 10.526 4.721 10.526 10.526 0 5.806-4.721 10.527-10.527 10.527-5.805 0-10.526-4.721-10.526-10.527 0-5.805 4.721-10.526 10.526-10.526zM184.21 168.421c-8.707 0-15.789 7.082-15.789 15.79 0 8.707 7.082 15.789 15.79 15.789 8.707 0 15.789-7.082 15.789-15.79 0-8.707-7.082-15.789-15.79-15.789zm0 26.316c-5.805 0-10.526-4.721-10.526-10.526 0-5.806 4.721-10.527 10.527-10.527 5.805 0 10.526 4.721 10.526 10.527 0 5.805-4.721 10.526-10.526 10.526z"/>
        </g>
    </g>
</svg>
