<svg xmlns="http://www.w3.org/2000/svg" width="330" height="330" viewBox="0 0 330 330">
    <g fill="none" fill-rule="evenodd">
        <g fill="#0096C7" fill-rule="nonzero">
            <path d="M165 118.14c-27.505 0-49.884 22.378-49.884 49.883 0 27.506 22.379 49.884 49.884 49.884s49.884-22.378 49.884-49.884c0-27.505-22.379-49.883-49.884-49.883zm0 95.43c-25.113 0-45.546-20.431-45.546-45.547 0-25.115 20.433-45.546 45.546-45.546 25.115 0 45.546 20.43 45.546 45.546S190.116 213.57 165 213.57z
            M186.022 121.435a2.172 2.172 0 0 0-.625-.183l-.5-.068a2.13 2.13 0 0 0-2.002.836 2.198 2.198 0 0 0-.278 2.168c1.485 3.582 3.254 10.822.992 12.484l-5.012 2.022c-3.795 1.532-6.454 5.048-6.94 9.19l-.033.251c-.119.869-.822 1.104-1.118 1.165-.536.11-1.252-.021-1.663-.715l-2.147-3.61c-.79-1.33-2.246-2.119-3.76-2.025a4.11 4.11 0 0 0-3.52 2.389c-1.93 4.16-4.355 10.163-4.943 15.134-.181 1.543.091 3.1.787 4.507l2.493 5.03c.885 1.78 2.24 3.29 3.925 4.363 1.552.989 4.43 2.982 6.264 5.216 2.086 2.546 4.897 4.19 7.916 4.682-.121 4.085.145 10.802 2.901 13.769.965 1.036 2.174 1.605 3.512 1.651.242.033.668.076 1.22.076 1.604 0 4.283-.366 6.733-2.408 3.412-2.844 5.16-7.849 5.2-14.875l3.096-14.061 1.176 1.976a6.602 6.602 0 0 0 4.379 3.1 6.553 6.553 0 0 0 5.217-1.204l4.727-3.578a2.187 2.187 0 0 0 .865-1.745c0-19.473-11.33-37.348-28.862-45.537zm20.675 47.37a2.233 2.233 0 0 1-1.79.412 2.228 2.228 0 0 1-1.503-1.064l-2.243-3.772a3.461 3.461 0 0 0-3.559-1.667 3.498 3.498 0 0 0-2.854 2.719l-3.598 16.336a2.168 2.168 0 0 0-.051.474c0 5.665-1.237 9.714-3.577 11.71-2.138 1.823-4.584 1.428-4.661 1.418-.28-.053-.491.174-.945-.315-1.347-1.45-2.028-6.513-1.656-12.316a2.51 2.51 0 0 0-2.504-2.679c-2.424 0-4.787-1.184-6.485-3.25-2.103-2.568-5.124-4.749-7.286-6.126a6.582 6.582 0 0 1-2.363-2.624l-2.493-5.03a3.633 3.633 0 0 1-.362-2.042c.53-4.463 2.922-10.213 4.41-13.457l1.96 3.296c1.298 2.181 3.743 3.252 6.238 2.744 2.42-.5 4.201-2.4 4.534-4.845l.046-.344c.296-2.542 1.924-4.701 4.249-5.64l5.213-2.102a2.28 2.28 0 0 0 .317-.16c4.109-2.517 3.577-8.542 2.498-12.953 13.39 8 21.94 22.54 22.314 38.365l-3.85 2.912zM156.134 196.251l-1.313-1.295a17.557 17.557 0 0 0-5.524-3.694l-6.684-2.83c-2.694-1.14-4.434-3.748-4.434-6.644v-3.221c0-1.972-.98-3.817-2.62-4.94a6.165 6.165 0 0 0-5.605-.688l-10.407 3.853a2.135 2.135 0 0 0-1.333 2.56c4.879 17.944 19.943 31.876 38.38 35.491.143.028.286.04.425.04.951 0 1.814-.618 2.085-1.551l.793-2.744a14.485 14.485 0 0 0-3.763-14.337zm-.405 13.16l-.234.805c-15.307-3.714-27.784-15.258-32.541-30.112l8.522-3.155a1.736 1.736 0 0 1 1.614.197c.479.327.754.845.754 1.42v3.222c0 4.611 2.772 8.763 7.061 10.579l6.684 2.83a13.284 13.284 0 0 1 4.168 2.786l1.313 1.295a10.238 10.238 0 0 1 2.66 10.133zM142.139 124.98a2.176 2.176 0 0 0-2.79-.49c-14.295 8.463-23.353 23.328-24.23 39.762-.039.727.297 1.425.892 1.852.375.27.818.408 1.269.408.266 0 .532-.05.783-.144l13.427-5.254c3.216-1.277 4.876-4.827 3.781-8.085a2.183 2.183 0 0 1 .537-2.254l6.238-6.185a11.052 11.052 0 0 0 3.303-7.905v-2.792c0-3.22-1.14-6.385-3.21-8.913zm-1.12 11.703c0 1.842-.722 3.57-2.036 4.87l-6.238 6.185a6.42 6.42 0 0 0-1.58 6.645 2.198 2.198 0 0 1-1.282 2.74l-10.134 3.984c1.682-12.982 8.985-24.6 20.082-31.852a9.735 9.735 0 0 1 1.189 4.636v2.792zM167.115 100c-2.501 0-5.025.074-7.5.222-1.328.078-2.296.77-2.16 1.54.128.723 1.18 1.261 2.404 1.261.083 0 .167-.003.25-.008 2.31-.136 4.667-.206 7.007-.206 1.335 0 2.419-.63 2.419-1.405S168.45 100 167.115 100zM106.011 175.928a59.48 59.48 0 0 1-.944-13.088c.048-1.266-1.037-2.326-2.423-2.372-1.373-.066-2.546.947-2.596 2.214a63.833 63.833 0 0 0 1.01 14.012c.208 1.12 1.27 1.91 2.472 1.91.14 0 .282-.008.425-.031 1.365-.211 2.287-1.395 2.056-2.645zM114.699 196.55c-2.678-3.328-4.94-6.885-6.722-10.576-.519-1.07-2.006-1.599-3.324-1.178-1.318.418-1.97 1.626-1.452 2.698 1.91 3.955 4.334 7.766 7.202 11.33.492.612 1.313.943 2.149.943.482 0 .97-.11 1.403-.337 1.184-.628 1.518-1.92.744-2.88zM110.797 136.473c-1.132-.473-2.49-.052-3.03.942a54.891 54.891 0 0 0-4.678 11.513c-.298 1.07.448 2.15 1.669 2.411.182.038.364.056.541.056 1.023 0 1.953-.612 2.208-1.522a51.245 51.245 0 0 1 4.364-10.74c.54-.996.06-2.185-1.074-2.66zM123.693 115.935c-.727-.994-1.99-1.099-2.824-.229a68.977 68.977 0 0 0-8.368 10.692c-.668 1.049-.498 2.55.382 3.347.363.33.787.488 1.21.488.604 0 1.2-.328 1.594-.944a64.2 64.2 0 0 1 7.814-9.982c.832-.868.918-2.378.192-3.372zM155.492 223.66a87.575 87.575 0 0 1-12.957-2.61c-1.211-.342-2.58.074-3.064.933-.483.856.106 1.828 1.316 2.17a93.61 93.61 0 0 0 13.887 2.799c.137.016.274.025.41.025 1.125 0 2.12-.572 2.322-1.38.224-.91-.631-1.776-1.914-1.936zM181.565 225.631c-.294-1.174-1.541-1.894-2.774-1.619a68.094 68.094 0 0 1-13.064 1.626c-1.272.032-2.274 1.038-2.238 2.243.037 1.183 1.06 2.119 2.303 2.119.02 0 .043 0 .069-.002a73.01 73.01 0 0 0 13.995-1.74c1.237-.279 2.002-1.455 1.71-2.627zM148.276 104.47c-.34-1.092-1.485-1.694-2.556-1.35a60.188 60.188 0 0 0-11.43 5.086c-.979.565-1.323 1.832-.771 2.832a2.03 2.03 0 0 0 1.774 1.055c.338 0 .682-.087.997-.268a56.039 56.039 0 0 1 10.663-4.745c1.07-.347 1.663-1.516 1.323-2.61zM132.227 217.074a63.93 63.93 0 0 1-10.16-7.617c-.895-.822-2.352-.828-3.25-.009-.9.82-.904 2.15-.01 2.974a68.675 68.675 0 0 0 10.883 8.16c.39.235.832.348 1.266.348.745 0 1.476-.33 1.917-.943.701-.967.412-2.272-.646-2.913zM199.485 215.736c-.56-.834-1.762-1.103-2.685-.596a56.997 56.997 0 0 1-4.981 2.421c-.975.418-1.395 1.47-.934 2.354.334.64 1.035 1.015 1.768 1.015.28 0 .563-.055.834-.17a60.667 60.667 0 0 0 5.34-2.594c.921-.507 1.216-1.595.658-2.43zM229.537 194.5c-.747-.88-2.13-1.038-3.085-.354l-19.79 14.107c-.534.383-.848.97-.848 1.592v6.047c0 1.112.985 2.015 2.199 2.015 1.213 0 2.198-.903 2.198-2.015v-5.06l18.94-13.504c.958-.683 1.132-1.949.386-2.828z
            M210.207 210.957l-7.255-2.014c-1.272-.357-2.639.22-3.06 1.273-.423 1.056.262 2.196 1.529 2.548l7.255 2.015c.254.07.513.105.764.105 1.013 0 1.957-.534 2.295-1.378.423-1.056-.261-2.196-1.528-2.549zM223.809 211.979l-4.031-10.58a2.089 2.089 0 0 0-.834-1.028l-10.077-6.348c-.956-.601-2.193-.277-2.765.726-.573 1.003-.264 2.302.69 2.903l9.495 5.982 3.78 9.919c.316.827 1.071 1.33 1.871 1.33.25 0 .504-.048.748-.154 1.034-.433 1.536-1.665 1.123-2.75z"/>
        </g>
    </g>
</svg>
