<svg xmlns="http://www.w3.org/2000/svg" width="751" height="167" viewBox="0 0 751 167">
    <g fill="none" fill-rule="nonzero">
        <g fill="#FFF">
            <path d="M305 18.5c2.5 0 3.7 1.2 3.7 3.7v16.7c0 2.6-1.2 3.9-3.7 3.9h-68.9c-17.5 0-22.6 5.1-22.6 23.1v67.8c0 2.5-1.2 3.7-3.7 3.7h-18.4c-2.6 0-3.9-1.2-3.9-3.7V63.4c0-32.6 13.3-44.9 47.6-44.9H305z"/>
            <path d="M293.2 69.9c16.9 0 21.3 5.3 21.3 20.2v11.7c0 5.3-2.2 7-7 7h-62.1v3c0 7.8 2.8 11 13.5 11h51.3c1.5 0 2.2.7 2.2 2.2v10.3c0 1.5-.7 2.2-2.2 2.2h-53c-22.2 0-29.3-7-29.3-24.9V94.9c0-17.8 7.1-25 29.3-25h36zm-47.9 28h49.8c1.5 0 2.1-.5 2.1-2.1v-5.2c0-5-1.8-7-7.5-7h-30.9c-10.7 0-13.5 3.1-13.5 11v3.3z"/>
            <path d="M310.1 139.5h-53c-22.8 0-31.3-7.3-31.3-26.9V94.9c0-19.4 8.8-27 31.3-27h36.1c17.4 0 23.3 5.6 23.3 22.2v11.7c0 6.2-2.9 9-9 9h-60.1v1c0 6.3 1.6 9 11.5 9h51.3c2.6 0 4.2 1.6 4.2 4.2v10.3c0 2.6-1.7 4.2-4.3 4.2zm-53-67.6c-20.4 0-27.3 5.8-27.3 23v17.7c0 17.1 6.9 22.9 27.3 22.9h53.2V125v-.2h-51.5c-11.2 0-15.5-3.6-15.5-13v-5h64.1c3.9 0 5-1.1 5-5V90.1c0-14.3-4.1-18.2-19.3-18.2h-36zm38 28h-51.8v-5.3c0-9.4 4.2-13 15.5-13h30.9c6.7 0 9.5 2.7 9.5 9v5.2c0 2.6-1.4 4.1-4.1 4.1zm-47.8-4h47.9v-5.3c0-3.8-.8-5-5.5-5h-30.9c-10.4 0-11.5 2.9-11.5 9v1.3zM391 69.9c22.2 0 29.3 7.1 29.3 25v17.7c0 17.8-7.1 24.9-29.3 24.9h-46.1V162c0 1.8-.9 2.7-2.7 2.7h-12.1c-1.8 0-2.8-.9-2.8-2.7V94.9c0-17.8 7.1-25 29.3-25H391zm-46.2 52.8h44.4c10.7 0 13.5-3.1 13.5-13.5v-11c0-10.3-2.8-13.5-13.5-13.5h-31c-10.6 0-13.4 3.2-13.4 13.5v24.5z"/>
            <path d="M342.1 166.7H330c-3 0-4.8-1.8-4.8-4.7V94.9c0-19.4 8.8-27 31.3-27H391c22.5 0 31.3 7.6 31.3 27v17.7c0 19.6-8.5 26.9-31.3 26.9h-44.1V162c-.1 2.9-1.8 4.7-4.8 4.7zm14.4-94.8c-20.4 0-27.3 5.8-27.3 23V162c0 .5.1.6.1.6s.3.1.7.1h12.1c.4 0 .6-.1.6-.1s.1-.2.1-.6v-26.5H391c20.4 0 27.3-5.8 27.3-22.9V94.9c0-17.2-6.9-23-27.3-23h-34.5zm32.8 52.8h-46.4V98.2c0-11.6 3.9-15.5 15.4-15.5h31c11.6 0 15.5 3.9 15.5 15.5v11c0 11.6-3.9 15.5-15.5 15.5zm-42.5-4h42.4c9.5 0 11.5-2 11.5-11.5v-11c0-9.4-2.2-11.5-11.5-11.5h-31c-9.3 0-11.4 2.2-11.4 11.5v22.5zM449.6 69.9c1.8 0 2.7 1 2.7 2.8v47.6c0 1.8.7 2.6 2.6 2.6h53.5V72.8c0-1.8.9-2.8 2.7-2.8h12.1c1.8 0 2.8 1 2.8 2.8V123h16.2c1.8 0 2.7.9 2.7 2.7v32.1c0 1.8-.9 2.7-2.7 2.7h-9.8c-1.8 0-2.8-.9-2.8-2.7v-20.3h-83.4c-8.2 0-11.4-3.3-11.4-10.5V72.8c0-1.8 1-2.8 2.8-2.8h12v-.1z"/>
            <path d="M542.2 162.5h-9.8c-3 0-4.8-1.8-4.8-4.7v-18.3h-81.4c-9.2 0-13.4-4-13.4-12.5V72.8c0-2.9 1.9-4.8 4.8-4.8h12.1c2.9 0 4.7 1.9 4.7 4.8v48.1h52V72.8c0-3 1.8-4.8 4.7-4.8h12.1c2.9 0 4.8 1.9 4.8 4.8V121h14.2c2.9 0 4.7 1.8 4.7 4.7v32.1c0 3-1.7 4.7-4.7 4.7zM437.5 71.9c-.7 0-.8.1-.8.8V127c0 6.2 2.5 8.5 9.4 8.5h85.4v22.3c0 .5.1.6.1.6s.3.1.7.1h9.8c.4 0 .6-.1.6-.1s.1-.2.1-.6v-32.1c0-.4-.1-.6-.1-.6s-.2-.1-.6-.1H524V72.8c0-.7-.1-.8-.8-.8h-12.1c-.5 0-.6.1-.6.1s-.1.3-.1.7V125h-55.5c-3 0-4.6-1.6-4.6-4.6V72.8c0-.5-.1-.7-.1-.7s-.1-.1-.6-.1h-12.1v-.1z"/>
            <g>
                <path d="M630.3 69.9c7.4 0 10.3 3.6 10.3 9.8v54.8c0 2-.7 3-2.5 3h-12.4c-1.7 0-2.6-1-2.6-2.8V87.5c0-1.4-.7-2-2.3-2h-26.7c-2.6 0-3 1.2-3.2 2.7-1.1 7.1-3.6 26.7-8 37.7-3.2 7.6-7.6 11.6-18.1 11.6h-11.7c-1.6 0-2.5-.9-2.5-2.7v-9c0-2 .9-2.8 2.5-2.8h8.7c3.1 0 6.3-1 8.7-7.3 2.7-6.6 4.6-18.8 7.1-37.4.7-5 2.7-8.4 10-8.4h42.7z"/>
                <path d="M638.2 139.5h-12.4c-2.8 0-4.6-1.9-4.6-4.8V87.6h-27c-.8 0-1 .1-1 .2s-.1.3-.2.9c-.1.9-.3 2-.5 3.2-1.3 8.8-3.7 25.1-7.6 34.8-3.2 7.7-7.9 12.8-19.9 12.8h-11.7c-2.8 0-4.5-1.8-4.5-4.7v-9c0-3 1.7-4.8 4.5-4.8h8.7c2.2 0 4.7-.5 6.9-6 2.7-6.5 4.5-18.9 7-37 .7-5 2.7-10.1 11.9-10.1h42.6c8.1 0 12.3 4.1 12.3 11.8v54.8c0 4.6-3.4 5-4.5 5zm-12.9-4.1s.1.1.5.1h12.8s.1-.3.1-.9V79.8c0-5.6-2.4-7.8-8.3-7.8h-42.6c-5.9 0-7.3 2.2-8 6.7-2.6 18.4-4.4 31-7.3 37.9-2.3 5.9-5.6 8.5-10.6 8.5h-9.1s-.1.3-.1.8v9c0 .4.1.6.1.7h12.1c10 0 13.5-3.8 16.2-10.3 3.8-9.3 6.1-25.3 7.4-33.9.2-1.3.3-2.4.5-3.3.2-1.3.7-4.4 5.2-4.4h26.7c2.7 0 4.3 1.5 4.3 4v47.1c0 .4.1.6.1.6z"/>
            </g>
            <g>
                <path d="M671.1 69.9c1.7 0 2.6 1 2.6 3v17.6h46.6c17.2 0 24 6.8 24 19.3v8.2c0 12.8-6.8 19.4-24 19.4h-60.8c-2.3 0-3.4-1.2-3.4-3.6v-61c0-2 .9-3 2.6-3h12.4v.1zm2.5 33.6v18.7c0 1 .4 1.5 1.2 1.5h42c7.4 0 10-2.5 10-7.8v-4.7c0-5.3-2.6-7.8-10-7.8h-43.2v.1z"/>
                <path d="M720.3 139.5h-60.8c-3.4 0-5.4-2.1-5.4-5.6v-61c0-3.1 1.8-5 4.6-5h12.4c2.8 0 4.6 1.9 4.6 5v15.6h44.6c17.5 0 26 7 26 21.3v8.2c0 14.7-8.3 21.5-26 21.5zM658.2 72s-.1.2-.1.9v61c0 1.4.3 1.6 1.4 1.6h60.8c15.4 0 22-5.2 22-17.4v-8.2c0-12.1-6.6-17.3-22-17.3h-48.6V72.9c0-.7-.1-.9-.2-.9 0 0-.1-.1-.4-.1h-12.4c-.4 0-.5.1-.5.1zm58.6 53.7h-42c-1.5 0-3.2-.9-3.2-3.5v-20.7h45.2c5.1 0 12 1 12 9.8v4.7c0 8.7-6.8 9.7-12 9.7zm-41.2-4h41.2c7.4 0 8-2.5 8-5.8v-4.7c0-3.3-.6-5.8-8-5.8h-41.2v16.3z"/>
            </g>
        </g>
        <path fill="#FFF" d="M323.2 18.9c.4 0 .6.2.6.6v15c0 .4.2.6.6.6h13V19.6c0-.4.2-.6.6-.6h3.2c.4 0 .7.2.7.6v15.7h4.2c.4 0 .6.2.6.6v8.3c0 .4-.2.6-.6.6h-2.7c-.4 0-.7-.2-.7-.6v-4.8h-20.8c-2 0-2.7-.8-2.7-2.5V19.6c0-.4.2-.6.7-.6h3.3v-.1z"/>
        <path fill="#FFF" d="M346.2 44.9h-2.7c-.5 0-.8-.3-.8-.8v-4.7H322c-2 0-2.8-.8-2.8-2.6V19.6c0-.5.3-.8.8-.8h3.2c.5 0 .8.3.8.8v15c0 .3.2.5.5.5h12.9V19.6c0-.5.3-.8.8-.8h3.2c.5 0 .8.3.8.8v15.6h4.1c.5 0 .8.3.8.8v8.3c-.2.4-.4.6-.9.6zM320 19c-.4 0-.6.2-.6.5v17.3c0 1.7.8 2.4 2.6 2.4h20.9v4.9c0 .4.2.5.6.5h2.7c.4 0 .5-.2.5-.5v-8.3c0-.4-.2-.5-.5-.5h-4.3V19.6c0-.4-.2-.5-.6-.5h-3.2c-.4 0-.5.2-.5.5v15.8h-13.1c-.5 0-.7-.2-.7-.7v-15c0-.4-.2-.5-.5-.5H320V19zM370.5 18.9c.4 0 .6.2.6.6v2.8c0 .4-.2.6-.6.6h-16.3c-.3 0-.4.1-.4.4v3.9h16.5c.4 0 .7.2.7.6v2.3c0 .4-.2.6-.7.6h-16.5v4c0 .3.1.4.4.4h16.3c.4 0 .6.2.6.6v2.8c0 .4-.2.6-.6.6h-19.4c-1.1 0-1.6-.4-1.6-1.5V20.4c0-.8.5-1.5 1.6-1.5h19.4z"/>
        <path fill="#FFF" d="M370.5 39.5h-19.4c-1.2 0-1.7-.5-1.7-1.6V20.4c0-1 .6-1.6 1.7-1.6h19.4c.5 0 .8.3.8.8v2.8c0 .5-.3.7-.8.7h-16.3c-.2 0-.3 0-.3.3v3.7h16.4c.5 0 .8.3.8.7v2.3c0 .5-.3.8-.8.8H354v3.9c0 .3.1.3.3.3h16.3c.5 0 .8.3.8.8v2.8c-.1.5-.4.8-.9.8zM351.1 19c-1 0-1.5.5-1.5 1.4v17.5c0 1 .4 1.4 1.5 1.4h19.4c.4 0 .5-.2.5-.5V36c0-.4-.2-.5-.5-.5h-16.3c-.2 0-.5-.1-.5-.5v-4.1h16.6c.4 0 .6-.2.6-.5v-2.3c0-.4-.2-.5-.6-.5h-16.6v-4c0-.3.2-.5.5-.5h16.3c.4 0 .5-.2.5-.5v-2.8c0-.4-.2-.5-.5-.5h-19.4V19zM378.4 18.9c.4 0 .6.2.6.6v7.6h13.7v-7.6c0-.4.2-.6.6-.6h3.2c.4 0 .7.2.7.6v19.2c0 .4-.2.6-.7.6h-3.2c-.4 0-.6-.2-.6-.6V31H379v7.8c0 .4-.2.6-.6.6h-3.2c-.4 0-.7-.2-.7-.6V19.6c0-.4.2-.6.7-.6h3.2v-.1z"/>
        <path fill="#FFF" d="M396.5 39.5h-3.2c-.5 0-.8-.3-.8-.8V31H379v7.7c0 .5-.3.8-.7.8h-3.2c-.5 0-.8-.3-.8-.8V19.6c0-.5.3-.8.8-.8h3.2c.5 0 .7.3.7.8V27h13.5v-7.5c0-.5.3-.8.8-.8h3.2c.5 0 .8.3.8.8v19.2c0 .5-.3.8-.8.8zm-17.6-8.7h13.9v7.9c0 .4.2.5.5.5h3.2c.4 0 .6-.2.6-.5V19.6c0-.4-.2-.5-.6-.5h-3.2c-.4 0-.5.2-.5.5v7.7h-13.9v-7.7c0-.4-.2-.5-.5-.5h-3.2c-.4 0-.6.2-.6.5v19.2c0 .4.2.5.6.5h3.2c.4 0 .5-.2.5-.5v-8zM423.2 18.9c.4 0 .7.2.7.6v2.9c0 .4-.2.7-.7.7H414v15.6c0 .4-.2.6-.6.6h-3.2c-.4 0-.6-.2-.6-.6V23.1h-9.2c-.4 0-.7-.2-.7-.7v-2.9c0-.4.2-.6.7-.6h22.8z"/>
        <path fill="#FFF" d="M413.4 39.5h-3.2c-.5 0-.8-.3-.8-.8V23.2h-9.1c-.5 0-.8-.3-.8-.8v-2.9c0-.5.3-.8.8-.8h22.8c.5 0 .8.3.8.8v2.9c0 .5-.3.8-.8.8H414v15.5c.2.5-.1.8-.6.8zm-13-20.5c-.4 0-.6.2-.6.5v2.9c0 .4.2.6.6.6h9.3v15.7c0 .4.2.5.5.5h3.2c.4 0 .5-.2.5-.5V23h9.3c.4 0 .6-.2.6-.6v-2.9c0-.4-.2-.5-.6-.5h-22.8zM443.1 18.9c4.5 0 6.3 2.1 6.3 6v2.2c0 3.9-1.8 6-6.3 6H431v5.6c0 .4-.2.6-.6.6h-3.2c-.4 0-.7-.2-.7-.6V19.8c0-.6.3-.9.9-.9h15.7zM431 29.3h11.2c2 0 2.7-.8 2.7-2.6v-1.1c0-1.8-.7-2.6-2.7-2.6h-10.8c-.3 0-.4.1-.4.4v5.9z"/>
        <path fill="#FFF" d="M430.3 39.5h-3.2c-.5 0-.8-.3-.8-.8V19.8c0-.6.3-1 1-1H443c4.4 0 6.4 1.9 6.4 6.1v2.2c0 4.2-2 6.1-6.4 6.1h-12v5.5c.1.5-.2.8-.7.8zM427.4 19c-.5 0-.8.2-.8.8v18.9c0 .4.2.5.6.5h3.2c.4 0 .5-.2.5-.5V33h12.2c4.2 0 6.2-1.9 6.2-5.9v-2.2c0-4-2-5.9-6.2-5.9h-15.7zm14.8 10.4h-11.3v-6.1c0-.4.3-.5.5-.5h10.8c2 0 2.8.8 2.8 2.7v1.1c0 2-.9 2.8-2.8 2.8zm-11.1-.2h11.1c1.9 0 2.6-.7 2.6-2.5v-1.1c0-1.8-.8-2.5-2.6-2.5h-10.8c-.2 0-.3.1-.3.2v5.9zM478.6 18.9c4.5 0 6.3 2.1 6.3 6v2.2c0 3.9-1.8 6-6.3 6h-12.1v5.6c0 .4-.2.6-.6.6h-3.2c-.4 0-.7-.2-.7-.6V19.8c0-.6.3-.9.9-.9h15.7zm-12.1 10.4h11.2c2 0 2.7-.8 2.7-2.6v-1.1c0-1.8-.7-2.6-2.7-2.6h-10.8c-.3 0-.4.1-.4.4v5.9z"/>
        <path fill="#FFF" d="M465.9 39.5h-3.2c-.5 0-.8-.3-.8-.8V19.8c0-.6.3-1 1-1h15.7c4.4 0 6.4 1.9 6.4 6.1v2.2c0 4.2-2 6.1-6.4 6.1h-12v5.5c0 .5-.2.8-.7.8zm-3-20.5c-.5 0-.8.2-.8.8v18.9c0 .4.2.5.6.5h3.2c.4 0 .5-.2.5-.5V33h12.2c4.2 0 6.2-1.9 6.2-5.9v-2.2c0-4-2-5.9-6.2-5.9h-15.7zm14.8 10.4h-11.3v-6.1c0-.4.3-.5.5-.5h10.8c2 0 2.8.8 2.8 2.7v1.1c0 2-.8 2.8-2.8 2.8zm-11.1-.2h11.1c1.9 0 2.6-.7 2.6-2.5v-1.1c0-1.8-.8-2.5-2.6-2.5h-10.8c-.2 0-.3.1-.3.2v5.9zM508.8 18.9c.4 0 .6.2.6.6v2.8c0 .4-.2.6-.6.6h-16.3c-.3 0-.4.1-.4.4v3.9h16.5c.4 0 .7.2.7.6v2.3c0 .4-.2.6-.7.6h-16.5v4c0 .3.1.4.4.4h16.3c.4 0 .6.2.6.6v2.8c0 .4-.2.6-.6.6h-19.4c-1.1 0-1.6-.4-1.6-1.5V20.4c0-.8.5-1.5 1.6-1.5h19.4z"/>
        <path fill="#FFF" d="M508.8 39.5h-19.4c-1.2 0-1.7-.5-1.7-1.6V20.4c0-1 .6-1.6 1.7-1.6h19.4c.5 0 .7.3.7.8v2.8c0 .5-.3.7-.7.7h-16.3c-.2 0-.3 0-.3.3v3.7h16.4c.5 0 .8.3.8.7v2.3c0 .5-.3.8-.8.8h-16.4v3.9c0 .3.1.3.3.3h16.3c.5 0 .7.3.7.8v2.8c.1.5-.2.8-.7.8zM489.4 19c-1 0-1.5.5-1.5 1.4v17.5c0 1 .4 1.4 1.5 1.4h19.4c.4 0 .5-.2.5-.5V36c0-.4-.2-.5-.5-.5h-16.3c-.2 0-.5-.1-.5-.5v-4.1h16.6c.4 0 .6-.2.6-.5v-2.3c0-.4-.2-.5-.6-.5H492v-4c0-.3.2-.5.5-.5h16.3c.4 0 .5-.2.5-.5v-2.8c0-.4-.2-.5-.5-.5h-19.4V19zM532.7 18.9c2 0 2.7.8 2.7 2.5v17.3c0 .4-.2.6-.7.6h-3.2c-.4 0-.6-.2-.6-.6v-15c0-.4-.2-.6-.6-.6h-12.4c-.4 0-.6.2-.6.6v15c0 .4-.2.6-.6.6h-3.2c-.4 0-.7-.2-.7-.6V21.4c0-1.7.8-2.5 2.7-2.5h17.2z"/>
        <path fill="#FFF" d="M534.8 39.5h-3.2c-.5 0-.8-.3-.8-.8v-15c0-.4-.1-.5-.5-.5h-12.4c-.4 0-.5.1-.5.5v15c0 .5-.3.8-.8.8h-3.2c-.5 0-.8-.3-.8-.8V21.4c0-1.8.9-2.6 2.8-2.6h17.2c2 0 2.8.8 2.8 2.6v17.3c.2.5-.1.8-.6.8zM517.9 23h12.4c.5 0 .7.2.7.7v15c0 .4.2.5.5.5h3.2c.4 0 .6-.2.6-.5V21.4c0-1.7-.8-2.4-2.6-2.4h-17.2c-1.9 0-2.6.7-2.6 2.4v17.3c0 .4.2.5.6.5h3.2c.4 0 .5-.2.5-.5v-15c0-.5.3-.7.7-.7zM552.3 18.9c1.5 0 2.4.5 3.4 2.2l9.7 17.6c.2.4.1.7-.4.7h-3.7c-.4 0-.5-.1-.7-.4l-2.1-3.8h-13.7l-2 3.8c-.1.3-.3.4-.7.4h-3.8c-.5 0-.6-.3-.4-.7l9.6-17.6c1-1.8 1.8-2.2 3.1-2.2h1.7zm-5.7 12.9h10l-4.6-8.6c-.1-.1-.2-.2-.3-.2h-.2c-.1 0-.2.1-.3.2l-4.6 8.6z"/>
        <path fill="#FFF" d="M565 39.5h-3.7c-.4 0-.6-.1-.8-.4l-2-3.7h-13.6l-2 3.7c-.2.3-.4.4-.8.4h-3.8c-.3 0-.4-.1-.5-.2-.1-.1-.1-.3.1-.6l9.6-17.6c.9-1.7 1.8-2.3 3.2-2.3h1.7c1.6 0 2.5.6 3.5 2.3l9.7 17.6c.1.2.2.5.1.6-.3.1-.4.2-.7.2zm-20.3-4.4h13.9v.1l2.1 3.8c.1.2.2.3.6.3h3.7c.1 0 .3 0 .3-.1.1-.1 0-.2-.1-.4l-9.7-17.6c-1-1.8-1.9-2.2-3.3-2.2h-1.7c-1.1 0-2 .4-3 2.2L538 38.7c-.1.2-.1.3-.1.4.1.1.2.1.3.1h3.8c.3 0 .5-.1.6-.3l2.1-3.8zm12.1-3.2h-10.4l4.7-8.7c.1-.2.2-.3.4-.3h.2c.2 0 .3.1.4.3l4.7 8.7zm-10-.2h9.7l-4.6-8.4c-.1-.1-.1-.1-.2-.1h-.2c-.1 0-.2 0-.2.2l-4.5 8.3zM586.2 18.9c.4 0 .7.2.7.6v2.9c0 .4-.2.7-.7.7H577v15.6c0 .4-.2.6-.6.6h-3.2c-.4 0-.6-.2-.6-.6V23.1h-9.2c-.4 0-.7-.2-.7-.7v-2.9c0-.4.2-.6.7-.6h22.8z"/>
        <path fill="#FFF" d="M576.4 39.5h-3.2c-.5 0-.8-.3-.8-.8V23.2h-9.1c-.5 0-.8-.3-.8-.8v-2.9c0-.5.3-.8.8-.8h22.8c.5 0 .8.3.8.8v2.9c0 .5-.3.8-.8.8H577v15.5c.2.5-.1.8-.6.8zm-13-20.5c-.4 0-.6.2-.6.5v2.9c0 .4.2.6.6.6h9.3v15.7c0 .4.2.5.5.5h3.2c.4 0 .5-.2.5-.5V23h9.3c.4 0 .6-.2.6-.6v-2.9c0-.4-.2-.5-.6-.5h-22.8zM606.1 18.9c4.5 0 6.3 2.1 6.3 6v2.2c0 3.9-1.8 6-6.3 6H594v5.6c0 .4-.2.6-.6.6h-3.2c-.4 0-.7-.2-.7-.6V19.8c0-.6.3-.9.9-.9h15.7zM594 29.3h11.2c2 0 2.7-.8 2.7-2.6v-1.1c0-1.8-.7-2.6-2.7-2.6h-10.8c-.3 0-.4.1-.4.4v5.9z"/>
        <path fill="#FFF" d="M593.3 39.5h-3.2c-.5 0-.8-.3-.8-.8V19.8c0-.6.3-1 1-1H606c4.4 0 6.4 1.9 6.4 6.1v2.2c0 4.2-2 6.1-6.4 6.1h-12v5.5c.1.5-.2.8-.7.8zM590.4 19c-.5 0-.8.2-.8.8v18.9c0 .4.2.5.6.5h3.2c.4 0 .5-.2.5-.5V33h12.2c4.2 0 6.2-1.9 6.2-5.9v-2.2c0-4-2-5.9-6.2-5.9h-15.7zm14.8 10.4h-11.3v-6.1c0-.4.3-.5.5-.5h10.8c2 0 2.8.8 2.8 2.7v1.1c0 2-.9 2.8-2.8 2.8zm-11.1-.2h11.1c1.9 0 2.6-.7 2.6-2.5v-1.1c0-1.8-.8-2.5-2.6-2.5h-10.8c-.2 0-.3.1-.3.2v5.9zM619.1 18.9c.4 0 .6.2.6.6v15.2c0 .2.1.3.2.3h.3c.2 0 .3-.1.4-.2l8.6-14.3c.8-1.4 1.3-1.7 3.4-1.7h2.6c1.8 0 2.6.6 2.6 3v16.8c0 .4-.2.6-.7.6H634c-.4 0-.6-.2-.6-.6V23.5c0-.2-.1-.3-.2-.3h-.3c-.2 0-.3.1-.4.2l-8.7 14.3c-.8 1.4-1.3 1.7-3.4 1.7h-2.5c-1.8 0-2.7-.7-2.7-3V19.6c0-.4.2-.6.7-.6h3.2v-.1z"/>
        <path fill="#FFF" d="M637.2 39.5H634c-.5 0-.8-.3-.8-.8V23.5c0-.2-.1-.2-.1-.2h-.3c-.1 0-.2 0-.3.1l-8.7 14.3c-.9 1.4-1.4 1.8-3.5 1.8h-2.5c-2 0-2.8-.9-2.8-3.1V19.6c0-.5.3-.8.8-.8h3.2c.5 0 .8.3.8.8v15.2c0 .2.1.2.1.2h.3c.2 0 .3 0 .3-.2l8.6-14.3c.8-1.4 1.3-1.7 3.5-1.7h2.6c2 0 2.7.9 2.7 3.1v16.8c.1.5-.2.8-.7.8zm-4.3-16.4h.3c.1 0 .3 0 .3.4v15.2c0 .4.2.5.5.5h3.2c.4 0 .6-.2.6-.5V22c0-2.5-.9-2.9-2.5-2.9h-2.6c-2.1 0-2.5.3-3.3 1.6L620.7 35c-.1.1-.2.3-.5.3h-.2c-.1 0-.3 0-.3-.4V19.6c0-.4-.2-.5-.5-.5H616c-.4 0-.6.2-.6.5v16.8c0 2.4 1 2.9 2.6 2.9h2.5c2 0 2.4-.3 3.3-1.7l8.7-14.3c0-.1.2-.2.4-.2zM654.7 18.9c1.5 0 2.4.5 3.4 2.2l9.7 17.6c.2.4.1.7-.4.7h-3.7c-.4 0-.5-.1-.7-.4l-2.1-3.8h-13.7l-2 3.8c-.1.3-.3.4-.7.4h-3.8c-.5 0-.6-.3-.4-.7l9.6-17.6c1-1.8 1.8-2.2 3.1-2.2h1.7zM649 31.8h10l-4.6-8.6c-.1-.1-.2-.2-.3-.2h-.2c-.1 0-.2.1-.3.2l-4.6 8.6z"/>
        <path fill="#FFF" d="M667.4 39.5h-3.7c-.4 0-.6-.1-.8-.4l-2-3.7h-13.6l-2 3.7c-.2.3-.4.4-.8.4h-3.8c-.3 0-.4-.1-.5-.2-.1-.1-.1-.3.1-.6l9.6-17.6c.9-1.7 1.8-2.3 3.2-2.3h1.7c1.6 0 2.5.6 3.5 2.3l9.7 17.6c.1.2.2.5.1.6-.3.1-.4.2-.7.2zm-20.3-4.4H661v.1l2.1 3.8c.1.2.2.3.6.3h3.7c.1 0 .3 0 .3-.1.1-.1 0-.2-.1-.4L658 21.2c-1-1.8-1.9-2.2-3.3-2.2H653c-1.1 0-2 .4-3 2.2l-9.6 17.6c-.1.2-.1.3-.1.4.1.1.2.1.3.1h3.8c.3 0 .5-.1.6-.3l2.1-3.9zm12.2-3.2h-10.4l4.7-8.7c.1-.2.2-.3.4-.3h.2c.2 0 .3.1.4.3l4.7 8.7zm-10.1-.2h9.7l-4.6-8.4c-.1-.1-.1-.1-.2-.1h-.2c-.1 0-.2 0-.2.2l-4.5 8.3zM674 18.9c.4 0 .6.2.6.6v15c0 .4.2.6.6.6h13V19.6c0-.4.2-.6.6-.6h3.2c.4 0 .7.2.7.6v15.7h4.2c.4 0 .6.2.6.6v8.3c0 .4-.2.6-.6.6h-2.7c-.4 0-.7-.2-.7-.6v-4.8h-20.8c-2 0-2.7-.8-2.7-2.5V19.6c0-.4.2-.6.7-.6h3.3v-.1z"/>
        <path fill="#FFF" d="M697 44.9h-2.7c-.5 0-.8-.3-.8-.8v-4.7h-20.7c-2 0-2.8-.8-2.8-2.6V19.6c0-.5.3-.8.8-.8h3.2c.5 0 .8.3.8.8v15c0 .3.2.5.5.5h12.9V19.6c0-.5.3-.8.8-.8h3.2c.5 0 .8.3.8.8v15.6h4.1c.5 0 .8.3.8.8v8.3c-.1.4-.4.6-.9.6zM670.8 19c-.4 0-.6.2-.6.5v17.3c0 1.7.8 2.4 2.6 2.4h20.9v4.9c0 .4.2.5.6.5h2.7c.4 0 .5-.2.5-.5v-8.3c0-.4-.2-.5-.5-.5h-4.3V19.6c0-.4-.2-.5-.6-.5H689c-.4 0-.5.2-.5.5v15.8h-13.1c-.5 0-.7-.3-.7-.7v-15c0-.4-.2-.5-.5-.5h-3.4V19zM704.1 18.9c.4 0 .6.2.6.6v15.2c0 .2.1.3.2.3h.3c.2 0 .3-.1.4-.2l8.6-14.3c.8-1.4 1.3-1.7 3.4-1.7h2.6c1.8 0 2.6.6 2.6 3v16.8c0 .4-.2.6-.7.6h-3.2c-.4 0-.6-.2-.6-.6V23.5c0-.2-.1-.3-.2-.3h-.3c-.2 0-.3.1-.4.2l-8.7 14.3c-.8 1.4-1.3 1.7-3.4 1.7H703c-1.8 0-2.7-.7-2.7-3V19.6c0-.4.2-.6.7-.6h3.1v-.1z"/>
        <path fill="#FFF" d="M722.2 39.5H719c-.5 0-.8-.3-.8-.8V23.5c0-.2-.1-.2-.1-.2h-.3c-.1 0-.2 0-.3.1l-8.7 14.3c-.9 1.4-1.4 1.8-3.5 1.8H703c-2 0-2.8-.9-2.8-3.1V19.6c0-.5.3-.8.8-.8h3.2c.5 0 .8.3.8.8v15.2c0 .2.1.2.1.2h.3c.2 0 .3 0 .3-.2l8.6-14.3c.8-1.4 1.3-1.7 3.5-1.7h2.6c2 0 2.7.9 2.7 3.1v16.8c-.1.5-.4.8-.9.8zm-4.3-16.4h.3c.1 0 .3 0 .3.4v15.2c0 .4.2.5.5.5h3.2c.4 0 .6-.2.6-.5V22c0-2.5-.9-2.9-2.5-2.9h-2.6c-2.1 0-2.5.3-3.3 1.6L705.8 35c-.1.1-.2.3-.5.3h-.3c-.1 0-.3 0-.3-.4V19.6c0-.4-.2-.5-.5-.5H701c-.4 0-.6.2-.6.5v16.8c0 2.4 1 2.9 2.6 2.9h2.5c2 0 2.4-.3 3.3-1.7l8.7-14.3c0-.1.2-.2.4-.2zM730.6 18.9c.4 0 .6.2.6.6v15.2c0 .2.1.3.2.3h.3c.2 0 .3-.1.4-.2l8.6-14.3c.8-1.4 1.3-1.7 3.4-1.7h2.6c1.8 0 2.6.6 2.6 3v16.8c0 .4-.2.6-.7.6h-3.2c-.4 0-.6-.2-.6-.6V23.5c0-.2-.1-.3-.2-.3h-.3c-.2 0-.3.1-.4.2l-8.7 14.3c-.8 1.4-1.3 1.7-3.4 1.7h-2.5c-1.8 0-2.7-.7-2.7-3V19.6c0-.4.2-.6.7-.6h3.3v-.1z"/>
        <path fill="#FFF" d="M748.7 39.5h-3.2c-.5 0-.8-.3-.8-.8V23.5c0-.2-.1-.2-.1-.2h-.3c-.1 0-.2 0-.3.1l-8.7 14.3c-.9 1.4-1.4 1.8-3.5 1.8h-2.5c-2 0-2.8-.9-2.8-3.1V19.6c0-.5.3-.8.8-.8h3.2c.5 0 .8.3.8.8v15.2c0 .2.1.2.1.2h.3c.2 0 .3 0 .3-.2l8.6-14.3c.8-1.4 1.3-1.7 3.5-1.7h2.6c2 0 2.7.9 2.7 3.1v16.8c.1.5-.2.8-.7.8zm-4.3-16.4h.3c.1 0 .3 0 .3.4v15.2c0 .4.2.5.5.5h3.2c.4 0 .6-.2.6-.5V22c0-2.5-.9-2.9-2.5-2.9h-2.6c-2.1 0-2.5.3-3.3 1.6L732.2 35c-.1.1-.2.3-.5.3h-.3c-.1 0-.3 0-.3-.4V19.6c0-.4-.2-.5-.5-.5h-3.2c-.4 0-.6.2-.6.5v16.8c0 2.4 1 2.9 2.6 2.9h2.5c2 0 2.4-.3 3.3-1.7l8.7-14.3c.1-.1.3-.2.5-.2zM72 0l24.3 41.3h47.4L120.1 82l23.7 40.7H96.4L72 164l-24.3-41.3H.3L24 82 .3 41.3h47.4L72 0zM41 82l15.3 27.3h31.4L103.1 82 87.7 54.7H56.4L41 82zm63.7 27.3h13.7l-7-11.7-6.7 11.7zm-79 0h13.7l-6.7-11.7-7 11.7zM65 41h14l-7-11.7L65 41zm46.4 25.3l7-11.7h-13.7l6.7 11.7zm-78.7 0l6.7-11.7H25.7l7 11.7zM72 134.7l7-11.7H65l7 11.7z"/>
        <path fill="#08B6FF" d="M.2 55.9L15.4 82 .3 107.7zM144.7 55.7l-15.1 26.1 15 25.8zM1.3 33.6h42.5L56.7 12H26.2S4.5 11.2 1.3 33.6zM143.6 33.6H101L88.2 12h30.5s21.7-.8 24.9 21.6zM.4 131.9h42.5l12.8 21.6H25.2s-21.7.9-24.8-21.6zM143.6 131.9H101l-12.8 21.6h30.5s21.7.9 24.9-21.6z"/>
    </g>
</svg>
